<svg width="448" height="512" xmlns="http://www.w3.org/2000/svg">
 <g>
  <title>background</title>
  <rect x="-1" y="-1" width="450" height="514" id="canvas_background" fill="none"/>
 </g>

 <g>
  <title>Layer 1</title>
  <path stroke="null" d="m117.765299,464l-81.290091,0l0,-261.720843l81.290091,0l0,261.720843zm-40.688797,-297.421982c-25.988328,0 -47.076501,-21.525686 -47.076501,-47.514015c0,-25.988328 21.088172,-47.076501 47.076501,-47.076501c25.988328,0 47.076501,21.088172 47.076501,47.076501c0,25.988328 -21.088172,47.514015 -47.076501,47.514015zm344.935996,297.421982l-81.115086,0l0,-127.404062c0,-30.363468 -0.61252,-69.302209 -42.263847,-69.302209c-42.263847,0 -48.739054,32.988552 -48.739054,67.11464l0,129.591631l-81.202589,0l0,-261.720843l77.964985,0l0,35.701138l1.137536,0c10.850346,-20.563156 37.363691,-42.263847 76.914952,-42.263847c82.252622,0 97.390605,54.164227 97.390605,124.516469l0,143.767083l-0.087503,0z" id="svg_1" fill="#ffffff"/>
 </g>
</svg>